<?xml version="1.0" encoding="utf-8"?>
<!-- Generator: Adobe Illustrator 19.1.1, SVG Export Plug-In . SVG Version: 6.00 Build 0)  -->
<svg version="1.1" id="Calque_1" xmlns="http://www.w3.org/2000/svg" xmlns:xlink="http://www.w3.org/1999/xlink" x="0px" y="0px"
	 viewBox="0 0 800 400" style="enable-background:new 0 0 800 400;" xml:space="preserve">
<style type="text/css">
	.st0{fill:#092F4D;}
</style>
<g>
	<path class="st0" d="M41.1,350.4c13.6,0.7,25.4-3.4,34-14.7c11.6-15.3,12.5-45.6-14.2-59.7c-8.2-4.3-16.7-8.3-24.7-12.9
		c-6.7-3.9-8.7-9.2-7.1-15.9c1.3-5.5,6-8.9,13.3-9.7c9.3-1,17.6,2.1,25.6,6.2c2.6,1.3,5.1,2.3,6.6-1C81.8,226.9,87,227.1,67,220
		c-0.6-0.2-1.1-0.5-1.7-0.6c-15.1-4.1-30-5-44.4,2.5c-21.5,11.2-25.9,49.7-0.1,62.8c9.5,4.9,19.8,8.3,28.7,14.5
		c7.8,5.4,10.4,13,7.2,21c-3,7.3-10.5,11.3-19.4,9.8c-5.6-0.9-11.1-2.2-16.5-4c-12.3-4-12.1-3.8-16.8,8.6c-1.8,4.9-0.4,7,3.9,8.9
		C18.4,348.1,29.4,350.6,41.1,350.4z M103.7,305c-0.6,5.4,0.8,12.9,3.2,20c9.9,29.8,43.2,29.2,61.2,20.3c2.4-1.2,5-3,3.8-6.1
		c-1.7-4.6-2.1-10-6.4-13.3c-1.2-0.9-2.7-0.1-4,0.6c-1.6,0.9-3,2.1-4.7,2.8c-8.9,3.9-22,2.3-25.1-10.8c-2.6-11-2.9-22,0-33
		c3.5-13.7,14.7-18.1,27-10.9c7.6,4.5,7.6,4.5,11.9-3c0.7-1.2,1.4-2.5,2.1-3.7c2.6-4.4,1.4-7.6-2.9-10.1
		c-19.6-11.2-46.7-6.3-57.7,11.9C106,280.1,103.9,291.2,103.7,305z M309.4,310.6c0-6.1,0-12.2,0-18.2c0-10.7,0.1-21.5,0-32.2
		c-0.1-8.2-1.1-8.9-8.8-7c-2.9,0.7-6,1.1-9,1.6c-5.1,0.8-7.4,3.2-7.3,9c0.3,32.6,0.1,65.3,0.2,97.9c0,4.4,0.5,8.9,1.4,13.3
		c1.6,7.8,6.3,13.6,14.1,15c7.7,1.4,15.7,1.5,23.4-1.5c2.9-1.1,3.7-2.9,3.2-5.6c-0.9-4.2-1.8-8.3-2.9-12.4c-0.7-2.4-2.1-3.5-5-2.9
		c-8,1.6-9.1,0.6-9.1-7.6C309.3,343.5,309.4,327,309.4,310.6z M231,302.6c0-13.6-0.2-27.1,0.1-40.7c0.1-5.4-1.4-7.8-7.2-7.5
		c-7.3,0.4-14.6,0.1-21.9,0.1c-13.2,0-13.3,0.3-12.4,13.8c0.2,3.3,1.4,4.9,4.8,4.6c1.8-0.1,3.7,0.2,5.5-0.1c5.7-0.8,7.2,1.5,7.2,7.1
		c-0.3,20.9,0.1,41.7-0.3,62.6c-0.1,6,1.9,8,7.6,7.4c2.8-0.3,5.7-0.1,8.5-0.1c8.1,0,8.1,0,8.1-7.8C231,329,231,315.8,231,302.6z
		 M215,205.8c-9.4,0.1-16.1,6.7-16.1,16c0,9.5,7.6,17,17,16.7c8.6-0.2,16-7.9,15.9-16.7C231.8,212.5,224.7,205.8,215,205.8z
		 M314.2,168.1c-9.1,0.1-15.6,6.6-15.5,15.7c0,8.7,7,15.5,16,15.5c8.5,0,15.6-7.3,15.6-16C330.2,174.5,323.4,168,314.2,168.1z
		 M286.4,137c-9.2,0-15.6,6.3-15.6,15.4c0,8.8,6.9,15.8,15.7,15.7c8.5-0.1,15.7-7.5,15.6-16.1C302,143.8,295,137,286.4,137z
		 M403.3,176.8c-0.1-8.3-6.9-14.9-15.3-14.7s-15.1,7.1-14.9,15.3c0.2,8.3,7,14.8,15.5,14.8C396.7,192.1,403.4,185.2,403.3,176.8z
		 M355.2,139.9c-0.1,8.3,6.8,15.3,14.8,15.2c8.3-0.1,15.2-7,15.2-15.1c0-8.4-6.6-14.9-15.1-14.9C361.3,125,355.2,131.1,355.2,139.9z
		 M336.5,103.3c-0.2,8.8,5.8,15,14.5,15.1c8.4,0.1,14.6-5.8,14.9-14.3c0.3-8-6.2-14.7-14.4-14.9C343,89.1,336.7,95,336.5,103.3z
		 M451.7,145.1c0-8.3-5.9-14.1-14.1-14.2c-8.4-0.1-14.9,6.3-14.8,14.4c0,7.6,6.8,14.3,14.4,14.5
		C445.2,159.9,451.7,153.4,451.7,145.1z M448.2,199.6c7.9,0,14.4-6.2,14.6-14c0.2-7.7-6.3-14.5-14-14.7c-8.2-0.2-14.8,6.2-14.8,14.4
		C433.9,193.3,440.2,199.6,448.2,199.6z M412.3,106c0,8.2,5.8,14.3,13.8,14.4c8.1,0.1,14.2-5.9,14.4-14c0.2-8.3-6.2-14.8-14.3-14.7
		C418.1,91.7,412.3,97.7,412.3,106z M400.8,67.8c0,7.7,6.1,13.8,13.8,13.9c7.6,0.1,14.1-6.7,13.9-14.5c-0.2-7.7-6.5-13.7-14.2-13.5
		C406.5,53.9,400.7,59.9,400.8,67.8z M501.6,119.6c0.1-7.9-5.7-13.7-13.6-13.7c-8.2,0-14.3,5.9-14.2,14c0.1,7.4,6.6,13.7,14.2,13.7
		S501.6,127.4,501.6,119.6z M479.4,159.9c-0.1,8.3,5.4,14.2,13.2,14.4c7.8,0.2,14.1-5.8,14.2-13.5c0.2-7.9-5.7-14-13.4-14.1
		C485,146.5,479.5,151.7,479.4,159.9z M484.7,201.8c-0.1,7.8,5.8,14.1,13.4,14.2c7.3,0.1,13.4-5.9,13.6-13.3
		c0.2-7.9-5.6-14.1-13.3-14.1C490.9,188.5,484.8,194.4,484.7,201.8z M496.4,79.7c0.1-7.8-6.2-14.1-13.7-13.9
		c-7.2,0.2-13.6,6.6-13.6,13.7c0,7.5,6.4,13.9,14,13.9C490.1,93.5,496.4,87.1,496.4,79.7z M539.7,127c-7.7,0.1-13.5,5.8-13.5,13.3
		c-0.1,7.2,6.2,13.3,13.7,13.4c7.3,0,13.3-6.1,13.3-13.6C553.3,132.3,547.7,126.9,539.7,127z M540.1,195c7.6-0.1,13.3-6,13.1-13.6
		c-0.2-7.4-6.3-13-13.9-12.8c-7.3,0.2-12.8,6-12.7,13.3C526.7,189.6,532.4,195.1,540.1,195z M539.8,86.3c-8,0-13.4,5.5-13.2,13.4
		c0.1,7.3,5.9,13,13.3,13c7.4,0,13.5-6.2,13.4-13.7C553.1,91.8,547.4,86.3,539.8,86.3z M583.9,152.5c-7.8-0.1-13,5.1-13,12.7
		c0,7.6,5.2,12.9,12.8,13c7.4,0.1,13.3-5.6,13.4-12.8C597.1,158.3,591.3,152.5,583.9,152.5z M477.9,53.4c7.1-0.1,13-6.2,12.9-13.4
		s-6.2-13.1-13.4-12.9c-7.2,0.2-13.1,6.3-12.9,13.4C464.7,47.7,470.7,53.5,477.9,53.4z M588.4,137.1c7.5-0.1,12.9-5.6,12.7-13.1
		c-0.1-7.2-6.1-12.9-13.3-12.9c-6.9,0-12.6,6.2-12.5,13.5C575.4,132.5,580.4,137.2,588.4,137.1z M552.4,59.7c0.1-8-4.9-13-12.7-13.1
		c-7,0-12.7,5.6-12.9,12.7c-0.1,7.2,5.8,13.2,13,13.2C547.1,72.4,552.4,67,552.4,59.7z M539.8,237.5c7.7,0,12.5-4.7,12.6-12.3
		c0.1-7.9-4.9-13-12.7-12.9c-7.3,0.1-12.8,5.4-13,12.4C526.7,232.1,532.2,237.5,539.8,237.5z M629.7,165.4c7.1,0,13-5.8,12.9-12.6
		c-0.1-7.1-6.4-13.1-13.4-12.9c-6.9,0.2-12.6,6.2-12.5,13.1C616.7,160,622.5,165.5,629.7,165.4z M579.4,194.8
		c-7.2-0.1-13,5.3-13.1,12.3c-0.1,7.2,5.8,13.2,13,13.2c6.8,0,12.7-5.9,12.9-12.8C592.3,200.6,586.5,194.9,579.4,194.8z M605.2,84.4
		c0.1-7.4-5.2-12.8-12.4-12.9s-12.5,5.2-12.7,12.6c-0.1,7.3,5.2,12.8,12.4,12.9C599.7,97,605.1,91.6,605.2,84.4z M633.5,193.9
		c0.1-7.4-5-12.6-12.4-12.7c-7-0.1-12.8,5.7-12.8,12.7c0.1,6.9,6,12.7,13,12.6C627.8,206.4,633.4,200.6,633.5,193.9z M638.3,100.7
		c-7.7-0.1-12.3,4.1-12.5,11.5c-0.2,8,4.3,13,11.7,13.1c7.5,0.2,12.8-4.7,13-12C650.7,105.7,645.9,100.8,638.3,100.7z M677,132.2
		c-7.4,0-12.5,5.1-12.4,12.5c0.1,7.1,5.2,12,12.3,12c7.5,0,12.1-4.6,12.2-12C689.2,136.9,684.7,132.2,677,132.2z M677.2,184
		c-0.1-7.4-5.3-12.5-12.6-12.3c-7,0.2-11.9,5.4-11.9,12.5s5.6,12.6,12.7,12.4C672.2,196.3,677.2,191.1,677.2,184z M710.1,190.2
		c7.6,0.1,12.3-4.2,12.6-11.6c0.2-6.9-5.1-12.5-11.9-12.7c-6.7-0.2-12.5,5.4-12.6,12.1C698,185.2,702.8,190,710.1,190.2z
		 M725.6,127.9c-6.9,0.1-12.1,5.7-12,12.7c0.1,6.7,5.4,12,12,12c6.9,0,12.4-5.5,12.3-12.3C737.9,133.4,732.2,127.8,725.6,127.9z
		 M646.1,85.8c7,0.1,12.5-5.3,12.5-12.1c0-6.7-5.1-11.9-11.8-12.1c-6.9-0.2-12.7,5.1-13,11.7C633.7,80,639.3,85.7,646.1,85.8z
		 M585,44.9c0.1,6.8,5.9,12.4,12.5,12.1c6.5-0.3,11.9-5.8,11.9-12.2c0.1-6.6-5.8-12.6-12.2-12.6C590.8,32.3,585,38.3,585,44.9z
		 M624.4,236.1c0.1-6.7-5-12.2-11.5-12.4c-6.8-0.2-12.5,5.2-12.6,12c-0.2,6.9,5.1,12.4,12,12.6C619.1,248.5,624.3,243.3,624.4,236.1
		z M707.3,217.2c0-6.8-5.5-12.1-12.5-12.2c-6.9,0-12.4,5.4-12.2,12.3c0.1,6.7,5.2,11.7,12,11.9C701.3,229.4,707.2,223.8,707.3,217.2
		z M574.3,239.4c-7,0.1-12,5.5-11.8,12.6c0.2,6.7,5.4,11.8,12.1,11.8c6.8,0,12.3-5.6,12.2-12.4C586.7,244.3,581.5,239.3,574.3,239.4
		z M785.1,203.5c-7.4-0.1-12.5,4.6-12.7,11.6c-0.1,6.7,5.4,12.4,12.2,12.4c6.9,0,12.2-5.3,12.2-12.3
		C797,208.2,792.3,203.6,785.1,203.5z M745.6,177c0.1,7.1,5.3,12.4,12.2,12.3c6.6-0.1,12.2-6.1,12-12.8c-0.2-6.8-5.9-12.1-12.8-11.9
		C750.4,164.8,745.5,170.1,745.6,177z M551.9,19.8c-0.1-7-5.3-11.9-12.5-11.8c-6.9,0.1-11.6,5-11.6,11.9c0,7.5,4.6,12,12.1,12.1
		C547.1,31.9,552,26.9,551.9,19.8z M689.2,93.7c-7-0.1-12.6,5.2-12.6,11.9c0,6.8,5.5,12.3,12.3,12.4c6.7,0,12-5.1,12.2-11.7
		C701.3,99.4,696.1,93.8,689.2,93.7z M664.7,224.3c-0.1-6.7-5.3-12-11.9-12.1c-6.9-0.1-12.2,5.3-12.2,12.3s5.5,12.6,12.1,12.5
		C659.5,236.9,664.8,231.3,664.7,224.3z M751,214.2c0.1-7.2-5-12.6-11.9-12.6c-7,0-12.2,5.2-12.2,12.3s5.1,12.2,12.2,12.2
		C745.9,226,751,221,751,214.2z"/>
	<path class="st0" d="M478.9,275.4c0,5.9,0,11.8,0,17.6c0,3.7,0.8,5.3,5,3.4c20.8-9.8,38.3-2.9,44.9,18.9
		c6.3,20.6,5.1,41.1-5.9,60.4c-7.4,13-32.3,20.6-44.2,10.3c-2.1-1.9-3.8-1-4.8,1.2c-1.8,3.8-5,3.6-8.3,3c-0.4-0.1-0.8-0.1-1.2-0.3
		c-4.1-1.9-9.4-0.8-12.6-4c-3.8-3.9,2-7.6,1.7-11.7c-0.2-3,0.4-6.1,0.4-9.1c0-33.6,0.2-67.3-0.1-100.9c-0.1-6,2.2-8.5,7.6-9.4
		c3.8-0.6,7.6-1.3,11.3-2.3c4.4-1.3,6.1,0.5,6.2,4.6C478.9,263.2,478.9,269.3,478.9,275.4L478.9,275.4z M480,342.7
		c0,5.9,0,11.8,0,17.6c0,9.7,6.5,13.9,15.7,9.9c5.3-2.3,8.7-6.5,10.6-11.9c3.4-9.6,3.1-19.6,1.9-29.5c-0.8-6.3-2.5-12.4-8.8-15.8
		c-8.8-4.8-19.2,0.9-19.3,10.8C480,330.2,480,336.4,480,342.7z"/>
	<path class="st0" d="M41.1,350.4c-11.8,0.3-22.7-2.2-33.2-6.9c-4.3-1.9-5.7-4-3.9-8.9c4.7-12.4,4.5-12.6,16.7-8.5
		c5.4,1.8,10.9,3,16.5,4c8.9,1.5,16.4-2.5,19.4-9.8c3.2-8,0.7-15.6-7.2-21c-8.9-6.1-19.1-9.6-28.7-14.5C-5,271.6-0.7,233.2,20.8,222
		c14.3-7.5,29.3-6.6,44.4-2.5c0.6,0.2,1.1,0.4,1.7,0.6c20,7.1,14.8,6.9,7.6,22.6c-1.5,3.3-4.1,2.4-6.6,1c-8-4.1-16.3-7.2-25.6-6.2
		c-7.3,0.8-11.9,4.2-13.3,9.7c-1.6,6.6,0.4,12,7.1,15.9c8,4.7,16.5,8.6,24.7,12.9c26.7,14.1,25.8,44.5,14.2,59.7
		C66.5,346.9,54.7,351,41.1,350.4z"/>
	<path class="st0" d="M417.6,341.1c0.5,13.1-1.7,26.4,4.5,38.9c1.2,2.5-0.7,4.2-3,5.1c-3,1.3-6.2,2.1-9,3.6
		c-4.9,2.6-8.3,2.4-10.2-3.6c-1.3-4.2-3.4-3.1-6.1-0.8c-12.4,10.4-36.2,8.4-44.4-6.3c-9.7-17.4-1-39.4,18.1-44.9
		c6.9-2,13.9-2.9,21-2.7c5,0.2,6.4-2.1,6.1-6.6c-0.6-9.1-3.7-12-13-12.1c-6-0.1-11.6,1.5-17.1,3.6c-6.6,2.4-7.4,2.1-9.6-4.3
		c-0.3-0.8-0.6-1.5-0.9-2.3c-3-8.1-2.4-10.2,5.7-12.7c13.1-4.1,26.6-5.7,40.1-1.9c11.4,3.3,17.4,11.5,17.8,23.3
		C417.8,325.2,417.6,333.1,417.6,341.1z M394.8,356.6c0-8.9,0-9.7-2.9-10c-7.2-0.7-14.3,0-19.7,5.6c-5.4,5.7-3.5,15.4,3.5,19.2
		C385.1,376.5,394.8,369,394.8,356.6z"/>
	<path class="st0" d="M103.7,305c0.1-13.9,2.2-24.9,8.4-35.2c11-18.2,38.1-23.2,57.7-11.9c4.3,2.5,5.4,5.7,2.9,10.1
		c-0.7,1.2-1.4,2.5-2.1,3.7c-4.3,7.5-4.3,7.5-11.9,3c-12.4-7.2-23.5-2.9-27,10.9c-2.8,11-2.6,22,0,33c3.1,13,16.2,14.6,25.1,10.8
		c1.7-0.7,3.1-1.9,4.7-2.8c1.3-0.7,2.9-1.5,4-0.6c4.3,3.3,4.7,8.7,6.4,13.3c1.2,3.1-1.4,4.9-3.8,6.1c-17.9,9-51.3,9.6-61.2-20.3
		C104.5,317.9,103.2,310.5,103.7,305z"/>
	<path class="st0" d="M309.4,310.6c0,16.4,0,32.8,0,49.3c0,8.3,1.1,9.3,9.1,7.6c2.9-0.6,4.4,0.5,5,2.9c1.1,4.1,2,8.3,2.9,12.4
		c0.6,2.7-0.3,4.5-3.2,5.6c-7.7,3-15.7,2.9-23.4,1.5c-7.8-1.4-12.6-7.2-14.1-15c-0.9-4.3-1.4-8.8-1.4-13.3
		c-0.1-32.6,0.1-65.3-0.2-97.9c-0.1-5.8,2.2-8.1,7.3-9c3-0.5,6-0.9,9-1.6c7.7-1.9,8.8-1.2,8.8,7c0.1,10.7,0,21.5,0,32.2
		C309.4,298.4,309.4,304.5,309.4,310.6z"/>
	<path class="st0" d="M231,302.6c0,13.2,0,26.3,0,39.5c0,7.8,0,7.8-8.1,7.8c-2.8,0-5.7-0.3-8.5,0.1c-5.7,0.7-7.7-1.3-7.6-7.4
		c0.4-20.9,0-41.7,0.3-62.6c0.1-5.6-1.5-7.9-7.2-7.1c-1.8,0.3-3.6-0.1-5.5,0.1c-3.4,0.3-4.5-1.3-4.8-4.6c-1-13.5-0.8-13.8,12.4-13.8
		c7.3,0,14.6,0.3,21.9-0.1c5.8-0.3,7.3,2,7.2,7.5C230.8,275.5,231,289.1,231,302.6z"/>
	<path class="st0" d="M215,205.8c9.7-0.1,16.8,6.7,16.8,16.1c0,8.8-7.3,16.5-15.9,16.7c-9.4,0.2-17.1-7.2-17-16.7
		C198.9,212.6,205.6,205.9,215,205.8z"/>
	<path class="st0" d="M314.2,168.1c9.1-0.1,16,6.4,16,15.3c0.1,8.6-7.1,16-15.6,16c-8.9,0-15.9-6.8-16-15.5
		C298.7,174.7,305.2,168.1,314.2,168.1z"/>
	<path class="st0" d="M286.4,137c8.6,0,15.6,6.7,15.7,15.1c0.1,8.6-7.1,16-15.6,16.1c-8.8,0.1-15.7-6.8-15.7-15.7
		C270.8,143.3,277.2,137,286.4,137z"/>
	<path class="st0" d="M403.3,176.8c0.1,8.4-6.5,15.3-14.7,15.3c-8.4,0-15.2-6.5-15.5-14.8c-0.2-8.2,6.5-15.1,14.9-15.3
		C396.3,161.9,403.2,168.5,403.3,176.8z"/>
	<path class="st0" d="M355.2,139.9c0.1-8.8,6.1-14.9,14.9-14.8c8.5,0,15.1,6.5,15.1,14.9c0,8.1-6.8,15-15.2,15.1
		C361.9,155.2,355.1,148.2,355.2,139.9z"/>
	<path class="st0" d="M336.5,103.3c0.2-8.3,6.5-14.2,15-14c8.2,0.2,14.7,6.9,14.4,14.9c-0.3,8.5-6.5,14.4-14.9,14.3
		C342.2,118.3,336.3,112.1,336.5,103.3z"/>
	<path class="st0" d="M451.7,145.1c0,8.2-6.5,14.8-14.5,14.7c-7.6-0.1-14.4-6.9-14.4-14.5c-0.1-8.1,6.5-14.4,14.8-14.4
		C445.8,131,451.7,136.9,451.7,145.1z"/>
	<path class="st0" d="M448.2,199.6c-8,0-14.3-6.3-14.2-14.3c0-8.2,6.6-14.6,14.8-14.4c7.8,0.2,14.2,7,14,14.7
		C462.6,193.5,456.1,199.7,448.2,199.6z"/>
	<path class="st0" d="M412.3,106c0-8.3,5.8-14.3,13.9-14.4s14.5,6.5,14.3,14.7c-0.2,8.1-6.3,14.1-14.4,14
		C418.1,120.3,412.3,114.2,412.3,106z"/>
	<path class="st0" d="M400.8,67.8c0-7.9,5.7-13.9,13.5-14.1c7.8-0.2,14,5.8,14.2,13.5c0.2,7.8-6.3,14.6-13.9,14.5
		C406.9,81.6,400.8,75.5,400.8,67.8z"/>
	<path class="st0" d="M501.6,119.6c-0.1,7.8-6.1,13.9-13.6,13.9c-7.6,0-14.1-6.3-14.2-13.7c-0.1-8,6-14,14.2-14
		C496,105.9,501.7,111.7,501.6,119.6z"/>
	<path class="st0" d="M479.4,159.9c0.1-8.2,5.5-13.4,14-13.3c7.8,0.1,13.6,6.3,13.4,14.1s-6.4,13.7-14.2,13.5
		C484.8,174.1,479.4,168.2,479.4,159.9z"/>
	<path class="st0" d="M484.7,201.8c0.1-7.4,6.2-13.3,13.6-13.2c7.8,0.1,13.6,6.2,13.3,14.1c-0.2,7.4-6.3,13.4-13.6,13.3
		C490.5,215.9,484.6,209.6,484.7,201.8z"/>
	<path class="st0" d="M496.4,79.7c0,7.4-6.3,13.8-13.4,13.7c-7.6-0.1-14-6.4-14-13.9c0-7.1,6.5-13.6,13.6-13.7
		C490.2,65.6,496.4,71.9,496.4,79.7z"/>
	<path class="st0" d="M539.7,127c7.9-0.1,13.6,5.3,13.5,13c0,7.5-6,13.6-13.3,13.6c-7.5,0-13.8-6.1-13.7-13.4
		C526.3,132.8,532,127.1,539.7,127z"/>
	<path class="st0" d="M540.1,195c-7.8,0.1-13.4-5.4-13.5-13.1c-0.1-7.3,5.4-13.1,12.7-13.3c7.6-0.2,13.7,5.4,13.9,12.8
		C553.4,188.9,547.7,194.8,540.1,195z"/>
	<path class="st0" d="M539.8,86.3c7.5,0,13.2,5.4,13.4,12.8s-6,13.7-13.4,13.7s-13.1-5.7-13.3-13C526.4,91.9,531.9,86.4,539.8,86.3z
		"/>
	<path class="st0" d="M583.9,152.5c7.4,0.1,13.2,5.8,13.2,12.9c0,7.1-6,12.8-13.4,12.8c-7.6-0.1-12.8-5.3-12.8-13
		C570.9,157.6,576.1,152.4,583.9,152.5z"/>
	<path class="st0" d="M477.9,53.4c-7.2,0.1-13.2-5.7-13.4-12.9c-0.2-7.1,5.8-13.2,12.9-13.4c7.2-0.2,13.2,5.7,13.4,12.9
		C490.9,47.2,485,53.4,477.9,53.4z"/>
	<path class="st0" d="M588.4,137.1c-8,0.1-13-4.7-13.1-12.5c-0.1-7.4,5.6-13.5,12.5-13.5c7.3,0,13.2,5.7,13.3,12.9
		C601.3,131.5,595.9,137.1,588.4,137.1z"/>
	<path class="st0" d="M552.4,59.7c-0.1,7.4-5.3,12.7-12.5,12.8c-7.2,0-13.2-6-13-13.2c0.1-7.1,5.8-12.7,12.9-12.7
		C547.6,46.6,552.5,51.7,552.4,59.7z"/>
	<path class="st0" d="M539.8,237.5c-7.6,0-13.2-5.5-13-12.8c0.1-7.1,5.7-12.4,13-12.4c7.8-0.1,12.8,5.1,12.7,12.9
		C552.3,232.8,547.5,237.5,539.8,237.5z"/>
	<path class="st0" d="M629.7,165.4c-7.2,0-13-5.5-13-12.4c-0.1-6.9,5.6-12.9,12.5-13.1c7.1-0.2,13.3,5.8,13.4,12.9
		C642.6,159.6,636.8,165.4,629.7,165.4z"/>
	<path class="st0" d="M579.4,194.8c7.1,0.1,12.9,5.8,12.8,12.7c-0.1,6.9-6.1,12.9-12.9,12.8c-7.2,0-13.1-6.1-13-13.2
		C566.4,200.1,572.2,194.7,579.4,194.8z"/>
	<path class="st0" d="M605.2,84.4c-0.1,7.3-5.5,12.7-12.7,12.6s-12.5-5.6-12.4-12.9c0.1-7.4,5.4-12.7,12.7-12.6
		C600,71.5,605.2,77,605.2,84.4z"/>
	<path class="st0" d="M633.5,193.9c-0.1,6.7-5.7,12.5-12.2,12.6c-7,0.1-12.9-5.7-13-12.6c-0.1-7,5.8-12.8,12.8-12.7
		C628.5,181.3,633.6,186.5,633.5,193.9z"/>
	<path class="st0" d="M638.3,100.7c7.7,0.1,12.4,5,12.2,12.7c-0.2,7.3-5.5,12.1-13,12c-7.4-0.2-11.9-5.2-11.7-13.1
		C625.9,104.8,630.5,100.5,638.3,100.7z"/>
	<path class="st0" d="M677,132.2c7.7,0,12.2,4.7,12.1,12.5c-0.1,7.4-4.8,12-12.2,12c-7.2,0-12.2-4.9-12.3-12
		C664.5,137.4,669.6,132.3,677,132.2z"/>
	<path class="st0" d="M677.2,184c0.1,7.1-4.9,12.3-11.9,12.5c-7.1,0.2-12.7-5.3-12.7-12.4c0-7.1,5-12.3,11.9-12.5
		C671.8,171.4,677.1,176.6,677.2,184z"/>
	<path class="st0" d="M710.1,190.2c-7.3-0.1-12.1-5-12-12.3c0.1-6.7,5.9-12.3,12.6-12.1c6.8,0.2,12.2,5.9,11.9,12.7
		C722.4,186,717.7,190.3,710.1,190.2z"/>
	<path class="st0" d="M725.6,127.9c6.7-0.1,12.3,5.5,12.4,12.3c0,6.8-5.4,12.3-12.3,12.3c-6.6,0-11.9-5.3-12-12
		C713.5,133.6,718.7,128.1,725.6,127.9z"/>
	<path class="st0" d="M646.1,85.8c-6.9-0.1-12.5-5.8-12.3-12.5s6-11.9,13-11.7c6.7,0.2,11.8,5.4,11.8,12.1
		C658.7,80.5,653.1,85.9,646.1,85.8z"/>
	<path class="st0" d="M585,44.9c-0.1-6.6,5.7-12.6,12.2-12.6c6.4-0.1,12.3,6,12.2,12.6c-0.1,6.4-5.5,11.9-11.9,12.2
		C590.9,57.3,585.1,51.6,585,44.9z"/>
	<path class="st0" d="M624.4,236.1c-0.1,7.1-5.3,12.4-12.2,12.2s-12.1-5.7-12-12.6c0.2-6.8,5.8-12.2,12.6-12
		C619.3,224,624.4,229.4,624.4,236.1z"/>
	<path class="st0" d="M707.3,217.2c0,6.6-6,12.2-12.7,12c-6.8-0.2-11.9-5.2-12-11.9c-0.1-6.9,5.3-12.3,12.2-12.3
		C701.8,205.1,707.3,210.4,707.3,217.2z"/>
	<path class="st0" d="M574.3,239.4c7.1-0.1,12.4,4.9,12.5,12c0.1,6.8-5.4,12.4-12.2,12.4c-6.6,0-11.9-5.1-12.1-11.8
		C562.3,244.9,567.3,239.5,574.3,239.4z"/>
	<path class="st0" d="M785.1,203.5c7.2,0.1,11.8,4.7,11.8,11.7s-5.3,12.4-12.2,12.3c-6.8,0-12.4-5.7-12.2-12.4
		C772.6,208.1,777.7,203.4,785.1,203.5z"/>
	<path class="st0" d="M745.6,177c-0.1-6.9,4.8-12.2,11.4-12.4c6.9-0.2,12.6,5,12.8,11.9c0.2,6.7-5.4,12.6-12,12.8
		C750.9,189.4,745.7,184.1,745.6,177z"/>
	<path class="st0" d="M551.9,19.8C552,27,547,32,539.9,32c-7.5,0-12.1-4.6-12.1-12.1c0-7,4.8-11.8,11.6-11.9
		C546.6,7.8,551.9,12.8,551.9,19.8z"/>
	<path class="st0" d="M689.2,93.7c6.9,0.1,12.1,5.7,11.9,12.6c-0.2,6.7-5.5,11.7-12.2,11.7c-6.8,0-12.4-5.6-12.3-12.4
		C676.6,98.9,682.2,93.6,689.2,93.7z"/>
	<path class="st0" d="M664.7,224.3c0.1,6.9-5.2,12.5-12,12.7c-6.6,0.1-12.1-5.5-12.1-12.5s5.3-12.4,12.2-12.3
		C659.4,212.4,664.6,217.7,664.7,224.3z"/>
	<path class="st0" d="M751,214.2c-0.1,6.8-5.1,11.8-11.9,11.9c-7.1,0.1-12.2-5-12.2-12.2s5.2-12.3,12.2-12.3
		C746,201.6,751.1,207,751,214.2z"/>
</g>
</svg>
